<svg xmlns="http://www.w3.org/2000/svg" xmlns:xlink="http://www.w3.org/1999/xlink" width="700" height="270" viewBox="0 0 700 270">
  <defs>
    <clipPath id="clip-FrontDP_Logo_Horisontal_White">
      <rect width="700" height="270"/>
    </clipPath>
  </defs>
  <g id="FrontDP_Logo_Horisontal_White" clip-path="url(#clip-FrontDP_Logo_Horisontal_White)">
    <path id="Union_2" data-name="Union 2" d="M0,250V0H680V250Zm10-10H670V10H10ZM380.611,153.21V118.042h-11.3V102.5h11.3V80.833h19.94V102.5h17.583v15.543H400.55v30.772c0,11.618,2.04,14.444,9.105,14.444A21.454,21.454,0,0,0,416.878,162l1.1,15.543a46.811,46.811,0,0,1-15.386,2.512C387.048,180.057,380.611,172.992,380.611,153.21ZM192.368,140.65c0-24.021,17.9-39.722,41.291-39.722,23.236,0,41.134,15.7,41.134,39.722s-17.9,39.406-41.134,39.406C210.266,180.057,192.368,164.671,192.368,140.65Zm20.881-.472c0,13.031,7.223,23.236,20.41,23.236,12.874,0,20.41-10.205,20.41-23.236s-7.536-23.079-20.41-23.079C220.471,117.1,213.249,127.148,213.249,140.179ZM543.966,178.33V70H578.82c10.833,0,20.254,2.2,27.161,8.006,7.065,5.81,11.3,13.5,11.3,24.493s-4.239,18.84-11.3,24.649c-6.908,5.809-16.328,8.477-27.161,8.477H564.533v42.7Zm20.409-58.718h11.932c6.28,0,10.519-1.57,13.973-4.081s5.966-6.908,5.966-13.031a15.686,15.686,0,0,0-6.438-12.874c-3.453-2.512-7.692-3.611-13.973-3.611H564.376ZM435.165,178.33V70h34.7C488.7,70,502.675,76.123,511,83.659c8.478,7.379,17.27,19.782,17.27,40.35,0,20.723-8.792,33.44-17.27,40.82-8.321,7.379-22.294,13.5-41.134,13.5Zm20.409-17.27h15.072c11.775,0,20.41-3.925,25.748-8.949,5.181-5.024,10.833-13.345,10.833-27.946,0-14.444-5.652-23.236-10.833-28.26-5.338-4.867-13.973-8.792-25.748-8.792H455.575ZM339.006,178.33V137.667c0-11.3-2.04-20.253-13.658-20.253-12.4,0-16.642,10.362-16.642,23.079V178.33h-20.1V102.342h20.1l-.158,11.461h.471c4.082-8.007,11.776-12.874,22.766-12.874,21.823,0,27.318,14.13,27.318,32.342V178.33Zm-197.82,0V102.342h19.939l-.314,12.246h.471c2.984-8.164,10.519-13.659,18.683-13.659a19.318,19.318,0,0,1,8.007,1.413l-1.413,17.428h-.942a34.6,34.6,0,0,0-8.32-.942c-5.966,0-10.519,2.512-13.345,7.379-1.885,3.768-2.826,8.949-2.826,14.758V178.33ZM63,178.33V70h63.9V87.113H83.41v30.458h40.977v16.8H83.41v43.96Zm402.374-29.344V100.112h9.917a18.273,18.273,0,0,1,14.233,6.162c2.933,3.329,5.976,8.925,5.976,18.2,0,9.35-3.043,15.087-5.976,18.416a18.47,18.47,0,0,1-14.233,6.091Z" transform="translate(10 10)" fill="#fff"/>
  </g>
</svg>
