<svg xmlns="http://www.w3.org/2000/svg" xmlns:xlink="http://www.w3.org/1999/xlink" width="520" height="520" viewBox="0 0 520 520">
  <defs>
    <clipPath id="clip-FrontDP_Logo_Square_White">
      <rect width="520" height="520"/>
    </clipPath>
  </defs>
  <g id="FrontDP_Logo_Square_White" clip-path="url(#clip-FrontDP_Logo_Square_White)">
    <path id="Union_3" data-name="Union 3" d="M0,500V0H500V500Zm10-10H490V10H10Zm273.9-65.64v-207h66.6c20.7,0,38.7,4.2,51.9,15.3,13.5,11.1,21.6,25.8,21.6,46.8s-8.1,36-21.6,47.1c-13.2,11.1-31.2,16.2-51.9,16.2H323.2v81.6Zm39-112.2h22.8c12,0,20.1-3,26.7-7.8s11.4-13.2,11.4-24.9a29.971,29.971,0,0,0-12.3-24.6c-6.6-4.8-14.7-6.9-26.7-6.9H322.9ZM76,424.36v-207h66.3c36,0,62.7,11.7,78.6,26.1,16.2,14.1,33,37.8,33,77.1,0,39.6-16.8,63.9-33,78-15.9,14.1-42.6,25.8-78.6,25.8Zm39-33h28.8c22.5,0,39-7.5,49.2-17.1,9.9-9.6,20.7-25.5,20.7-53.4,0-27.6-10.8-44.4-20.7-54-10.2-9.3-26.7-16.8-49.2-16.8H115Zm19-24V274.547h18.991c12.484,0,21.743,5.246,27.257,11.7,5.618,6.322,11.444,16.948,11.444,34.569,0,17.756-5.826,28.651-11.444,34.973-5.513,6.323-14.773,11.569-27.257,11.569ZM387.23,156.539V122.077H376.154V106.846H387.23V85.615h19.539v21.231H424v15.231h-17.23V152.23c0,11.385,2,14.154,8.923,14.154a21.023,21.023,0,0,0,7.078-1.231l1.076,15.231a45.857,45.857,0,0,1-15.077,2.462C393.539,182.846,387.23,175.923,387.23,156.539ZM202.769,144.23c0-23.538,17.538-38.922,40.461-38.922,22.77,0,40.308,15.385,40.308,38.922S266,182.846,243.23,182.846C220.307,182.846,202.769,167.769,202.769,144.23Zm20.462-.461c0,12.769,7.077,22.769,20,22.769,12.616,0,20-10,20-22.769s-7.385-22.616-20-22.616C230.307,121.154,223.231,131,223.231,143.77Zm123.231,37.384V141.308c0-11.077-2-19.847-13.385-19.847-12.154,0-16.307,10.154-16.307,22.615v37.077H297.077V106.692h19.693l-.154,11.231h.462c4-7.846,11.538-12.615,22.307-12.615,21.385,0,26.77,13.846,26.77,31.692v44.154Zm-193.846,0V106.692h19.538l-.308,12h.462c2.923-8,10.308-13.384,18.308-13.384a18.934,18.934,0,0,1,7.846,1.384l-1.385,17.077h-.923a33.952,33.952,0,0,0-8.154-.923c-5.846,0-10.308,2.461-13.077,7.231-1.846,3.692-2.769,8.769-2.769,14.461v36.616Zm-76.616,0V75h62.616v16.77H96v29.846h40.154v16.462H96v43.077Z" transform="translate(10 10)" fill="#fff"/>
  </g>
</svg>
